<svg xmlns="http://www.w3.org/2000/svg" viewBox="0 0 32 32">
  <rect width="32" height="32" rx="6" fill="#0ea5e9"/>
  <rect x="5" y="8" width="22" height="19" rx="2" fill="white"/>
  <rect x="5" y="8" width="22" height="6" rx="2" fill="#0284c7"/>
  <rect x="9" y="5" width="2" height="5" rx="1" fill="#0284c7"/>
  <rect x="21" y="5" width="2" height="5" rx="1" fill="#0284c7"/>
  <path d="M16 15.5c-0.5-1-1.5-1.5-2.5-1.5-1.5 0-2.5 1.2-2.5 2.7 0 2.3 2.5 4.3 5 6.3 2.5-2 5-4 5-6.3 0-1.5-1-2.7-2.5-2.7-1 0-2 0.5-2.5 1.5z" fill="#f43f5e"/>
</svg>
